<?xml version="1.0" encoding="UTF-8" standalone="no"?>
<!-- Generator: Adobe Illustrator 25.2.1, SVG Export Plug-In . SVG Version: 6.00 Build 0)  -->

<svg
   version="1.1"
   id="svg1558"
   x="0px"
   y="0px"
   viewBox="0 0 200 200"
   style="enable-background:new 0 0 200 200;"
   xml:space="preserve"
   xmlns:inkscape="http://www.inkscape.org/namespaces/inkscape"
   xmlns:sodipodi="http://sodipodi.sourceforge.net/DTD/sodipodi-0.dtd"
   xmlns="http://www.w3.org/2000/svg"
   xmlns:svg="http://www.w3.org/2000/svg"><defs
   id="defs837" /><sodipodi:namedview
   id="namedview835"
   pagecolor="#ffffff"
   bordercolor="#666666"
   borderopacity="1.0"
   inkscape:pageshadow="2"
   inkscape:pageopacity="0.0"
   inkscape:pagecheckerboard="0"
   showgrid="false"
   inkscape:zoom="4.365"
   inkscape:cx="54.86827"
   inkscape:cy="103.09278"
   inkscape:window-width="1322"
   inkscape:window-height="1082"
   inkscape:window-x="961"
   inkscape:window-y="1407"
   inkscape:window-maximized="0"
   inkscape:current-layer="svg1558" />
<style
   type="text/css"
   id="style824">
	.st0{fill:#0C60FC;}
	.st1{fill:#FFFFFF;}
	.st2{font-family:'Arial-BoldMT';}
	.st3{font-size:13.7386px;}
</style>
<path
   class="st0"
   d="M30,0H170c16.6,0,30,13.4,30,30V170c0,16.6-13.4,30-30,30H30c-16.6,0-30-13.4-30-30V30C0,13.4,13.4,0,30,0z"
   id="path826"
   style="fill:#21b7ec;fill-opacity:1" />
<path
   id="path1552"
   class="st1"
   d="M174.2,93.6l-71.8-62.9c-1-0.9-2.4-1.4-3.8-1.4l0,0c-1.4,0-2.8,0.5-3.8,1.4L23.3,93.6  c-1.8,1.6-1.7,4,0.1,5.5c1.9,1.5,4.8,1.4,6.6-0.1l68.6-60.3L167.5,99c0.9,0.8,2.1,1.2,3.3,1.2s2.3-0.4,3.2-1.1  C175.9,97.6,176,95.2,174.2,93.6L174.2,93.6z" />
<path
   id="path1554"
   class="st1"
   d="M148.9,98.7c-2.4,0-4.4,2-4.4,4.4v49H53.2v-49c0-2.4-2-4.4-4.4-4.4s-4.4,2-4.4,4.4v57.8h108.9  v-57.8C153.3,100.7,151.3,98.7,148.9,98.7z" />
<path
   id="path918"
   class="st1"
   d="  M80.6,128.6c0.4,0.4,0.8,0.8,1.2,1.2c1.4-0.3,3-0.8,4.8-1.7c-5.8-4.4-9.7-11.6-9.7-19.7c0-13.3,10.2-24.1,22.7-24.1  c7.6,0,14.4,4,18.5,10.1c0.8-1.9,1.3-3.7,1.5-5.2c-0.3-0.4-0.6-0.7-0.9-1c-2.5-2.6-5.3-4.7-8.5-6.1c-3.3-1.5-6.8-2.2-10.5-2.2  c-3.6,0-7.1,0.8-10.5,2.2c-3.2,1.4-6.1,3.5-8.5,6.1c-2.5,2.6-4.4,5.7-5.8,9.1c-1.4,3.5-2.1,7.3-2.1,11.1c0,3.9,0.7,7.6,2.1,11.1  C76.2,122.9,78.1,126,80.6,128.6z M124.6,100.4c-0.7,1.6-1.5,3.2-2.5,4.9c0.1,1,0.2,2,0.2,3.1c0,13.3-10.2,24.1-22.7,24.1  c-1,0-1.9-0.1-2.8-0.2c-1.6,1.1-3.2,2-4.8,2.7c-0.3,0.2-0.6,0.3-1,0.4c2.8,1,5.6,1.5,8.6,1.5c3.6,0,7.1-0.8,10.5-2.2  c3.2-1.4,6.1-3.5,8.5-6.1c2.5-2.6,4.4-5.7,5.8-9.1c1.4-3.5,2.1-7.3,2.1-11.1c0-3.2-0.5-6.3-1.4-9.2  C124.9,99.6,124.7,100,124.6,100.4L124.6,100.4z" />
<path
   id="path920"
   class="st1"
   d="  M123.3,83.1c-1.1-1.1-3.1-2.4-6.6-2.2c-1.7,0.1-3.7,0.6-5.8,1.5c1.8,0.9,3.4,1.9,4.9,3.2c0.6-0.1,1.2-0.2,1.8-0.2  c1.2,0,2.1,0.3,2.7,0.9c1.4,1.5,1,5.6-1.2,10.6c-2.6,5.9-7.2,12.5-12.9,18.7c-10.3,11-19.9,15.9-24.8,15.9c-1.2,0-2.1-0.3-2.7-0.9  c-0.8-0.9-1.1-2.6-0.6-5c-1.1-1.6-2.1-3.4-2.9-5.2c-0.9,2.4-1.4,4.5-1.5,6.4c-0.2,3.7,1,5.9,2.1,7c1,1,2.7,2.2,5.7,2.2  c0.3,0,0.6,0,0.9,0c2.4-0.2,5.1-1,8.1-2.5c6-2.9,12.6-8.1,18.8-14.7c6.1-6.5,11-13.6,13.8-20c1.4-3.2,2.2-6.1,2.4-8.6  C125.6,86.4,124.4,84.3,123.3,83.1L123.3,83.1z" />
<text
   transform="matrix(0.8136 -0.5691 0.5579 0.8299 85.5793 116.0581)"
   class="st1 st2 st3"
   id="text832"
   style="-inkscape-font-specification:'Arial-BoldMT Bold';font-family:Arial-BoldMT;font-weight:bold;font-style:normal;font-stretch:normal;font-variant:normal">HAC</text>
</svg>
